HIERARCHY
ROOT Hips
{
    OFFSET 0.000000 0.000000 0.000000
    CHANNELS 6 Xposition Yposition Zposition Zrotation Xrotation Yrotation
    JOINT Spine
    {
        OFFSET -0.000000 6.800997 0.000000
        CHANNELS 3 Xposition Yposition Zposition
        JOINT Spine1
        {
            OFFSET -0.000000 15.076976 0.000000
            CHANNELS 3 Xposition Yposition Zposition
            JOINT Neck
            {
                OFFSET -0.000000 16.735754 0.000000
                CHANNELS 3 Xposition Yposition Zposition
                JOINT Head
                {
                    OFFSET -0.000000 12.855545 1.658780
                    CHANNELS 3 Xposition Yposition Zposition
                    End Site
                    {
                        OFFSET -0.000000 16.587799 0.000000
                    }
                }
            }
            JOINT LeftShoulder
            {
                OFFSET 3.297964 11.877930 -0.634173
                CHANNELS 3 Xposition Yposition Zposition
                JOINT LeftArm
                {
                    OFFSET 14.955791 0.000000 0.000000
                    CHANNELS 3 Xposition Yposition Zposition
                    JOINT LeftForeArm
                    {
                        OFFSET 20.046839 0.000000 0.000000
                        CHANNELS 3 Xposition Yposition Zposition
                        JOINT LeftHand
                        {
                            OFFSET 18.470182 0.000000 0.000000
                            CHANNELS 3 Xposition Yposition Zposition
                            End Site
                            {
                                OFFSET 12.440849 0.000000 0.000000
                            }
                        }
                    }
                }
            }
            JOINT RightShoulder
            {
                OFFSET -3.336920 11.877930 -0.634173
                CHANNELS 3 Xposition Yposition Zposition
                JOINT RightArm
                {
                    OFFSET -14.955791 0.000000 0.000000
                    CHANNELS 3 Xposition Yposition Zposition
                    JOINT RightForeArm
                    {
                        OFFSET -20.046839 0.000000 0.000000
                        CHANNELS 3 Xposition Yposition Zposition
                        JOINT RightHand
                        {
                            OFFSET -18.470182 0.000000 0.000000
                            CHANNELS 3 Xposition Yposition Zposition
                            End Site
                            {
                                OFFSET -12.440849 0.000000 0.000000
                            }
                        }
                    }
                }
            }
        }
    }
    JOINT LeftUpLeg
    {
        OFFSET 8.293900 0.000000 0.000000
        CHANNELS 3 Xposition Yposition Zposition
        JOINT LeftLeg
        {
            OFFSET -0.000000 -37.774677 0.000000
            CHANNELS 3 Xposition Yposition Zposition
            JOINT LeftFoot
            {
                OFFSET -0.000000 -32.041210 0.000000
                CHANNELS 3 Xposition Yposition Zposition
                JOINT LeftToeBase
                {
                    OFFSET -0.000000 -5.391035 12.440849
                    CHANNELS 3 Xposition Yposition Zposition
                    End Site
                    {
                        OFFSET -0.000000 0.000000 3.317559
                    }
                }
            }
        }
    }
    JOINT RightUpLeg
    {
        OFFSET -8.293900 0.000000 0.000000
        CHANNELS 3 Xposition Yposition Zposition
        JOINT RightLeg
        {
            OFFSET -0.000000 -37.774677 0.000000
            CHANNELS 3 Xposition Yposition Zposition
            JOINT RightFoot
            {
                OFFSET -0.000000 -32.041210 0.000000
                CHANNELS 3 Xposition Yposition Zposition
                JOINT RightToeBase
                {
                    OFFSET -0.000000 -5.391035 12.440849
                    CHANNELS 3 Xposition Yposition Zposition
                    End Site
                    {
                        OFFSET -0.000000 0.000000 3.317559
                    }
                }
            }
        }
    }
}
MOTION
Frames: 6
Frame Time: 0.050000
0.000000 58.855968 -0.000000 -0.000734 66.844093 -0.329084 0.068829 82.785393 -3.955860 -0.488239 99.768494 -4.261896 0.145072 112.941467 -1.246151 0.588737 130.739227 -3.664676 3.210421 96.806030 -4.406706 14.820635 97.980858 -4.867501 19.695845 74.143234 -1.439335 16.069798 61.031761 9.144800 15.433253 53.157345 14.264722 -4.190197 96.752007 -4.125278 -14.587945 97.985214 -4.479569 -20.133648 74.577927 -1.874594 -17.660347 61.671970 9.080073 -17.947649 53.601917 14.484253 8.853711 58.903492 -0.366762 10.796613 18.472206 -1.399505 11.652979 -16.927883 -4.922797 12.161199 -22.509800 8.481932 12.298517 -22.445950 12.027897 -8.880128 58.800026 0.367432
0.000000 58.705685 -0.000000 -0.000534 66.674141 -0.327320 0.062386 82.558510 -3.963426 -0.491347 99.474915 -4.268110 0.140447 112.591331 -1.253136 0.591036 130.335617 -3.677954 3.197931 96.533699 -4.414045 14.746297 97.707237 -4.865778 19.626713 73.931633 -1.463135 16.019670 60.849659 9.103676 15.386314 53.003853 14.212329 -4.185325 96.475945 -4.132298 -14.521644 97.708984 -4.482216 -20.070307 74.364494 -1.888829 -17.613976 61.486053 9.043570 -17.911392 53.441109 14.436269 8.835609 58.755543 -0.369171 10.782037 18.428761 -1.397908 11.627832 -16.872007 -4.932805 12.144006 -22.442327 8.435631 12.283287 -22.379442 11.972264 -8.861971 58.650253 0.369856
0.000000 58.739719 -0.000000 -0.000456 66.714722 -0.325594 0.054386 82.578674 -3.965652 -0.497271 99.460327 -4.267592 0.134541 112.555565 -1.243968 0.591892 130.308792 -3.663571 3.192312 96.535965 -4.417583 14.709061 97.713608 -4.857619 19.697664 74.019142 -1.498065 16.266874 60.892475 9.022930 15.776175 53.038940 14.092696 -4.193933 96.473969 -4.134857 -14.500648 97.714363 -4.476641 -20.140482 74.448463 -1.906136 -17.854618 61.520790 8.969167 -18.292688 53.459789 14.322299 8.839584 58.791641 -0.369688 10.786944 18.469645 -1.380872 11.616688 -16.845911 -4.937013 12.152557 -22.420734 8.431104 12.296840 -22.358803 11.968070 -8.866030 58.685619 0.370359
0.000000 58.788425 -0.000000 -0.001650 66.739151 -0.334864 0.085989 82.715576 -3.932790 -0.475738 99.778992 -4.187918 0.149730 112.952415 -1.202081 0.603520 130.704590 -3.708494 3.223426 96.762100 -4.333106 14.942714 97.901894 -4.796056 19.799076 74.213051 -1.317182 15.961904 61.555492 9.237098 15.049755 53.908600 14.385861 -4.173529 96.700066 -4.064781 -14.659540 97.891815 -4.457140 -20.237568 74.651711 -1.830960 -17.583790 62.207344 9.122166 -17.644514 54.390976 14.549969 8.851166 58.842163 -0.356462 10.766969 18.472775 -1.428699 11.596701 -16.791235 -4.840714 12.076776 -22.367203 8.550537 12.208776 -22.303770 12.092924 -8.877583 58.729885 0.357149
0.000000 58.861839 -0.000000 -0.001060 66.845490 -0.330516 0.072721 82.795143 -3.945371 -0.485181 99.795166 -4.241502 0.145575 112.971657 -1.230982 0.589326 130.765549 -3.661682 3.214286 96.820412 -4.386824 14.849792 97.989784 -4.847219 19.744194 74.195671 -1.414975 16.116840 61.163330 9.150370 15.461060 53.328419 14.266620 -4.187110 96.765030 -4.108343 -14.608521 97.991371 -4.470053 -20.179625 74.630783 -1.865365 -17.710026 61.804649 9.073921 -17.983852 53.778049 14.473764 8.854450 58.910419 -0.363124 10.788318 18.486618 -1.400055 11.638947 -16.901262 -4.900754 12.144049 -22.483681 8.504519 12.280859 -22.419907 12.050657 -8.880877 58.805931 0.363786
0.000000 58.666023 -0.000000 0.000465 66.648819 -0.322755 0.046413 82.466148 -3.976853 -0.501563 99.276253 -4.314407 0.132787 112.349174 -1.278922 0.579350 130.088425 -3.643731 3.181553 96.386490 -4.461658 14.616068 97.583939 -4.903693 19.544823 73.781021 -1.562084 16.151047 60.402302 8.994127 15.755866 52.419571 14.061593 -4.193559 96.330055 -4.171389 -14.433190 97.593178 -4.492620 -19.988939 74.208946 -1.927551 -17.722536 61.026962 8.969165 -18.223923 52.822224 14.324548 8.826167 58.713623 -0.376191 10.788686 18.415987 -1.370048 11.643457 -16.922194 -4.986855 12.187922 -22.490519 8.368384 12.333019 -22.428078 11.901742 -8.852487 58.613873 0.376850
